<svg width="20" height="20" viewBox="0 0 20 20" fill="none" xmlns="http://www.w3.org/2000/svg">
<path d="M18.7384 13.2071V14.7188C18.7384 14.8993 18.6111 15.1214 18.454 15.211L10.2812 19.9318C10.1254 20.0227 9.86955 20.0227 9.7124 19.9318L3.99422 16.6318C3.83838 16.5409 3.78513 16.3409 3.87734 16.185L5.67604 13.1604C5.76825 13.0058 5.99163 12.8785 6.17215 12.8785H18.4111C18.5916 12.8785 18.7397 13.0266 18.7397 13.2071H18.7384Z" fill="#DCD5C8"/>
<path d="M9.41884 4.67731L7.69936 1.60718C7.61105 1.45004 7.41105 1.39419 7.2552 1.4851L1.53832 4.7877C1.38248 4.87861 1.25391 5.09939 1.25391 5.2799V14.7189C1.25391 14.8994 1.38248 15.1215 1.53832 15.2111L2.84741 15.9669C3.00326 16.0578 3.20585 16.0033 3.29546 15.8474L9.41494 5.24874C9.50585 5.09289 9.50715 4.83575 9.41884 4.67861V4.67731Z" fill="#DCD5C8"/>
<path d="M18.4525 4.78896L10.2758 0.0681818C10.12 -0.0227273 9.86416 -0.0227273 9.70701 0.0681818L8.39792 0.824026C8.24208 0.913636 8.18753 1.11623 8.27844 1.27208L14.3979 11.8708C14.4875 12.0266 14.7096 12.1565 14.8901 12.1591L18.4083 12.2045C18.5888 12.2071 18.7369 12.0604 18.7369 11.8799V5.27987C18.7369 5.09935 18.6096 4.87727 18.4525 4.78766V4.78896Z" fill="#DCD5C8"/>
</svg>
