<svg width="168" height="35" viewBox="0 0 168 35" fill="none" xmlns="http://www.w3.org/2000/svg">
<g clip-path="url(#clip0_220_46)">
<path d="M30.6139 22.2974V24.3218C30.6139 24.5635 30.4435 24.8609 30.233 24.9809L19.2887 31.3026C19.08 31.4244 18.7374 31.4244 18.5269 31.3026L10.8695 26.8835C10.6608 26.7618 10.5895 26.4939 10.713 26.2852L13.1217 22.2348C13.2452 22.0279 13.5443 21.8574 13.7861 21.8574H30.1756C30.4174 21.8574 30.6156 22.0557 30.6156 22.2974H30.6139Z" fill="white"/>
<path d="M18.1331 10.8748L15.8305 6.7635C15.7123 6.55306 15.4444 6.47828 15.2357 6.60002L7.58009 11.0226C7.37139 11.1444 7.19922 11.44 7.19922 11.6818V24.3218C7.19922 24.5635 7.37139 24.8609 7.58009 24.9809L9.33313 25.9931C9.54183 26.1148 9.81313 26.0418 9.93313 25.8331L18.1279 11.64C18.2497 11.4313 18.2514 11.087 18.1331 10.8765V10.8748Z" fill="white"/>
<path d="M30.2341 11.0244L19.2846 4.70263C19.0759 4.58089 18.7333 4.58089 18.5228 4.70263L16.7698 5.71481C16.5611 5.83481 16.4881 6.10611 16.6098 6.31481L24.8046 20.5079C24.9246 20.7165 25.222 20.8905 25.4637 20.8939L30.175 20.9548C30.4167 20.9583 30.615 20.7618 30.615 20.52V11.6818C30.615 11.44 30.4446 11.1426 30.2341 11.0226V11.0244Z" fill="white"/>
</g>
<path d="M60.2605 15.314C60.2165 14.7853 60.1063 14.2933 59.9301 13.838C59.7539 13.3828 59.5042 12.9862 59.1811 12.6485C58.858 12.296 58.4615 12.0243 57.9915 11.8334C57.5216 11.6278 56.9782 11.525 56.3614 11.525C55.8914 11.525 55.4509 11.5837 55.0397 11.7012C54.6431 11.8187 54.2833 11.9802 53.9602 12.1859C53.6371 12.3915 53.3655 12.6485 53.1452 12.9569C52.9249 13.2653 52.7707 13.6031 52.6826 13.9702H49.5765C49.6646 13.1184 49.9069 12.3621 50.3034 11.7012C50.7146 11.0257 51.2286 10.4676 51.8455 10.027C52.477 9.57175 53.1892 9.23397 53.9823 9.01368C54.79 8.7787 55.6344 8.66856 56.5156 8.68325C57.7492 8.71262 58.8066 8.93291 59.6878 9.34411C60.5836 9.75532 61.3253 10.3207 61.9127 11.0403C62.5001 11.7453 62.9334 12.5824 63.2124 13.5517C63.4914 14.5062 63.631 15.5416 63.631 16.6577C63.631 17.8032 63.4768 18.8606 63.1684 19.8299C62.8599 20.7845 62.3973 21.6143 61.7805 22.3192C61.1784 23.0241 60.4147 23.5822 59.4895 23.9934C58.579 24.3899 57.5142 24.5955 56.2953 24.6102C55.4729 24.6249 54.6578 24.5368 53.8501 24.3459C53.0571 24.1402 52.3228 23.7878 51.6472 23.2885C51.0891 22.8773 50.6118 22.3486 50.2153 21.7024C49.8188 21.0415 49.5765 20.2631 49.4884 19.3673H52.5724C52.7046 19.8813 52.9175 20.2925 53.2113 20.6009C53.505 20.9093 53.8281 21.1517 54.1805 21.3279C54.5477 21.5041 54.9222 21.6216 55.304 21.6803C55.6858 21.7244 56.0383 21.7464 56.3614 21.7464C56.9342 21.7464 57.4555 21.6583 57.9255 21.4821C58.3954 21.2912 58.7993 21.0342 59.1371 20.7111C59.4748 20.388 59.7392 19.9988 59.9301 19.5435C60.121 19.0883 60.2312 18.5889 60.2605 18.0456H54.1585V15.314H60.2605ZM72.0651 8.88151C73.005 8.88151 73.8568 8.98431 74.6205 9.18991C75.3842 9.38083 76.0304 9.69658 76.5591 10.1372C77.1024 10.5631 77.5136 11.1285 77.7927 11.8334C78.0864 12.5236 78.2259 13.3754 78.2112 14.3888C78.1965 15.2699 78.0423 16.0556 77.7486 16.7459C77.4549 17.4214 77.0437 17.9942 76.515 18.4641C76.001 18.9194 75.3768 19.2718 74.6425 19.5215C73.9229 19.7565 73.1372 19.874 72.2854 19.874H69.2675V24.478H66.0733V8.88151H72.0651ZM72.1092 17.0543C72.5057 17.0543 72.8802 17.0029 73.2327 16.9001C73.5851 16.7973 73.8935 16.6357 74.1579 16.4154C74.4222 16.1951 74.6352 15.9234 74.7967 15.6003C74.9583 15.2773 75.0464 14.8954 75.0611 14.4548C75.0905 13.4562 74.8261 12.7513 74.268 12.3401C73.71 11.9288 72.983 11.7232 72.0872 11.7232H69.2675V17.0543H72.1092ZM82.2339 21.5041L81.1104 24.478H77.6299L83.6658 8.88151H87.2786L93.2264 24.478H89.7238L88.6444 21.5041H82.2339ZM83.1591 18.6844H87.6971L85.4502 12.274L83.1591 18.6844ZM105.122 24.478V10.2253H97.8526C97.838 11.0624 97.8233 11.8995 97.8086 12.7366L97.7645 14.3888C97.7645 15.2259 97.7498 16.063 97.7205 16.9001C97.6911 17.6931 97.6544 18.5229 97.6103 19.3893C97.5663 20.2411 97.4414 21.0488 97.2358 21.8125C96.9862 22.7671 96.5676 23.4647 95.9802 23.9053C95.3927 24.3459 94.6144 24.5808 93.6451 24.6102V23.1343C94.0857 23.1343 94.4602 23.0315 94.7686 22.8259C95.077 22.6056 95.3267 22.3192 95.5176 21.9667C95.6791 21.6583 95.8039 21.2618 95.8921 20.7772C95.9949 20.2925 96.0683 19.7859 96.1124 19.2572C96.1564 18.7285 96.1858 18.2145 96.2005 17.7151C96.2152 17.2011 96.2298 16.7679 96.2445 16.4154C96.2739 15.1671 96.2959 13.9188 96.3106 12.6705C96.3253 11.4222 96.3473 10.1665 96.3767 8.90354H106.554V24.478H105.122ZM110.613 24.478V8.90354H112.045V22.5835L120.989 8.90354H122.817V24.478H121.385V10.9082L112.442 24.478H110.613ZM125.445 28.9059V23.1563H125.665C125.988 23.1563 126.267 23.0755 126.502 22.914C126.752 22.7377 126.958 22.5248 127.119 22.2751C127.325 21.952 127.486 21.5996 127.604 21.2177C127.721 20.8359 127.802 20.4908 127.846 20.1824C127.964 19.4774 128.044 18.7211 128.088 17.9134C128.133 17.1057 128.169 16.3787 128.199 15.7325C128.257 14.587 128.294 13.4488 128.309 12.318C128.338 11.1872 128.367 10.049 128.397 8.90354H138.112V23.1563H140.05V28.9059H138.618V24.478H126.877V28.9059H125.445ZM136.702 23.1563V10.2253H129.807L129.586 16.7018C129.557 17.4067 129.52 18.1631 129.476 18.9708C129.432 19.7638 129.337 20.5055 129.19 21.1957C129.102 21.6216 128.97 22.0034 128.793 22.3412C128.617 22.679 128.419 22.9507 128.199 23.1563H136.702ZM142.667 8.90354H152.911V10.2253H144.099V16.085H152.029V17.4067H144.099V23.1563H152.911V24.478H142.667V8.90354ZM156.113 8.90354H161.4C163.088 8.90354 164.41 9.31474 165.365 10.1372C166.319 10.9596 166.797 12.2446 166.797 13.9922C166.797 14.8734 166.642 15.6371 166.334 16.2832C166.04 16.9294 165.629 17.4728 165.1 17.9134C164.586 18.3393 163.97 18.655 163.25 18.8606C162.545 19.0662 161.781 19.169 160.959 19.169H157.544V24.478H156.113V8.90354ZM160.915 17.8473C161.576 17.8473 162.178 17.7739 162.721 17.627C163.265 17.4802 163.727 17.2452 164.109 16.9221C164.491 16.599 164.785 16.1878 164.99 15.6885C165.211 15.1891 165.321 14.5944 165.321 13.9041C165.321 12.5824 164.961 11.6425 164.241 11.0844C163.522 10.5117 162.538 10.2253 161.289 10.2253H157.544V17.8473H160.915Z" fill="white"/>
<defs>
<clipPath id="clip0_220_46">
<rect width="34.7826" height="34.7826" fill="white"/>
</clipPath>
</defs>
</svg>
