<svg width="36" height="36" viewBox="0 0 36 36" fill="none" xmlns="http://www.w3.org/2000/svg">
<rect width="36" height="36" rx="18" fill="#DCD5C8"/>
<path d="M21.332 12.3333H14.6654C12.6654 12.3333 11.332 13.3333 11.332 15.6666V20.3333C11.332 22.6666 12.6654 23.6666 14.6654 23.6666H21.332C23.332 23.6666 24.6654 22.6666 24.6654 20.3333V15.6666C24.6654 13.3333 23.332 12.3333 21.332 12.3333ZM21.6454 16.3933L19.5587 18.0599C19.1187 18.4133 18.5587 18.5866 17.9987 18.5866C17.4387 18.5866 16.872 18.4133 16.4387 18.0599L14.352 16.3933C14.1387 16.2199 14.1054 15.8999 14.272 15.6866C14.4454 15.4733 14.7587 15.4333 14.972 15.6066L17.0587 17.2733C17.5654 17.6799 18.4254 17.6799 18.932 17.2733L21.0187 15.6066C21.232 15.4333 21.552 15.4666 21.7187 15.6866C21.892 15.8999 21.8587 16.2199 21.6454 16.3933Z" fill="#161616"/>
</svg>
