<svg width="36" height="36" viewBox="0 0 36 36" fill="none" xmlns="http://www.w3.org/2000/svg">
<rect width="36" height="36" rx="18" fill="#DCD5C8"/>
<path d="M17.3654 19.9666L16.132 21.1999C15.872 21.4599 15.4587 21.4599 15.192 21.2066C15.1187 21.1333 15.0454 21.0666 14.972 20.9933C14.2854 20.2999 13.6654 19.5733 13.112 18.8133C12.5654 18.0533 12.1254 17.2933 11.8054 16.5399C11.492 15.7799 11.332 15.0533 11.332 14.3599C11.332 13.9066 11.412 13.4733 11.572 13.0733C11.732 12.6666 11.9854 12.2933 12.3387 11.9599C12.7654 11.5399 13.232 11.3333 13.7254 11.3333C13.912 11.3333 14.0987 11.3733 14.2654 11.4533C14.4387 11.5333 14.592 11.6533 14.712 11.8266L16.2587 14.0066C16.3787 14.1733 16.4654 14.3266 16.5254 14.4733C16.5854 14.6133 16.6187 14.7533 16.6187 14.8799C16.6187 15.0399 16.572 15.1999 16.4787 15.3533C16.392 15.5066 16.2654 15.6666 16.1054 15.8266L15.5987 16.3533C15.5254 16.4266 15.492 16.5133 15.492 16.6199C15.492 16.6733 15.4987 16.7199 15.512 16.7733C15.532 16.8266 15.552 16.8666 15.5654 16.9066C15.6854 17.1266 15.892 17.4133 16.1854 17.7599C16.4854 18.1066 16.8054 18.4599 17.152 18.8133C17.2187 18.8799 17.292 18.9466 17.3587 19.0133C17.6254 19.2733 17.632 19.6999 17.3654 19.9666Z" fill="#161616"/>
<path d="M24.6451 22.2201C24.6451 22.4068 24.6118 22.6001 24.5451 22.7868C24.5251 22.8401 24.5051 22.8934 24.4784 22.9468C24.3651 23.1868 24.2184 23.4134 24.0251 23.6268C23.6984 23.9868 23.3384 24.2468 22.9318 24.4134C22.9251 24.4134 22.9184 24.4201 22.9118 24.4201C22.5184 24.5801 22.0918 24.6668 21.6318 24.6668C20.9518 24.6668 20.2251 24.5068 19.4584 24.1801C18.6918 23.8534 17.9251 23.4134 17.1651 22.8601C16.9051 22.6668 16.6451 22.4734 16.3984 22.2668L18.5784 20.0868C18.7651 20.2268 18.9318 20.3334 19.0718 20.4068C19.1051 20.4201 19.1451 20.4401 19.1918 20.4601C19.2451 20.4801 19.2984 20.4868 19.3584 20.4868C19.4718 20.4868 19.5584 20.4468 19.6318 20.3734L20.1384 19.8734C20.3051 19.7068 20.4651 19.5801 20.6184 19.5001C20.7718 19.4068 20.9251 19.3601 21.0918 19.3601C21.2184 19.3601 21.3518 19.3868 21.4984 19.4468C21.6451 19.5068 21.7984 19.5934 21.9651 19.7068L24.1718 21.2734C24.3451 21.3934 24.4651 21.5334 24.5384 21.7001C24.6051 21.8668 24.6451 22.0334 24.6451 22.2201Z" fill="#161616"/>
</svg>
