<svg width="32" height="32" viewBox="0 0 32 32" fill="none" xmlns="http://www.w3.org/2000/svg">
<rect width="32" height="32" fill="white"/>
<path d="M29.0996 20.8112V23.0787C29.0996 23.3494 28.9087 23.6825 28.673 23.8169L16.414 30.8979C16.1802 31.0342 15.7964 31.0342 15.5607 30.8979L6.98352 25.948C6.74976 25.8117 6.66989 25.5117 6.8082 25.2779L9.50623 20.7411C9.64454 20.5093 9.9796 20.3184 10.2504 20.3184H28.6087C28.8794 20.3184 29.1015 20.5404 29.1015 20.8112H29.0996Z" fill="black"/>
<path d="M15.1223 8.01579L12.5431 3.41076C12.4106 3.17505 12.1106 3.09129 11.8769 3.22765L3.30162 8.18137C3.06786 8.31773 2.875 8.64888 2.875 8.91965V23.0776C2.875 23.3484 3.06786 23.6815 3.30162 23.8159L5.26524 24.9496C5.499 25.086 5.8029 25.0041 5.93731 24.7704L15.1165 8.87095C15.2528 8.6372 15.2548 8.2515 15.1223 8.01579Z" fill="black"/>
<path d="M28.6776 8.18319L16.4128 1.10227C16.179 0.96591 15.7952 0.96591 15.5595 1.10227L13.5959 2.23599C13.3621 2.37041 13.2803 2.67429 13.4167 2.90805L22.5958 18.8055C22.7302 19.0393 23.0634 19.2341 23.3341 19.238L28.6114 19.3062C28.8821 19.3101 29.1042 19.0899 29.1042 18.8192V8.91952C29.1042 8.64875 28.9133 8.31565 28.6776 8.18124V8.18319Z" fill="black"/>
</svg>
