<svg width="44" height="50" viewBox="0 0 44 50" fill="none" xmlns="http://www.w3.org/2000/svg">
<path d="M43.9901 33.0178V36.7971C43.9901 37.2484 43.6698 37.8036 43.2744 38.0276L22.7111 49.8295C22.319 50.0568 21.6753 50.0568 21.2799 49.8295L6.89247 41.5795C6.50035 41.3523 6.36638 40.8523 6.59838 40.4626L11.1241 32.901C11.3561 32.5146 11.9181 32.1964 12.3723 32.1964H43.1666C43.6208 32.1964 43.9933 32.5665 43.9933 33.0178H43.9901Z" fill="white"/>
<path d="M20.5437 11.6932L16.2173 4.01783C15.9951 3.62497 15.4919 3.48536 15.0998 3.71263L0.715615 11.9691C0.323498 12.1964 0 12.7483 0 13.1996V36.7971C0 37.2484 0.323498 37.8035 0.715615 38.0276L4.0094 39.9172C4.40152 40.1445 4.91127 40.0081 5.13674 39.6185L20.5339 13.1217C20.7626 12.7321 20.7659 12.0893 20.5437 11.6964V11.6932Z" fill="white"/>
<path d="M43.2877 11.9724L22.7146 0.170455C22.3225 -0.0568182 21.6788 -0.0568182 21.2834 0.170455L17.9896 2.06007C17.5975 2.28409 17.4603 2.79058 17.689 3.1802L33.0862 29.677C33.3116 30.0666 33.8704 30.3912 34.3246 30.3977L43.1766 30.5114C43.6308 30.5179 44.0034 30.151 44.0034 29.6997V13.1997C44.0034 12.7484 43.6831 12.1932 43.2877 11.9692V11.9724Z" fill="white"/>
</svg>
