<svg width="36" height="36" viewBox="0 0 36 36" fill="none" xmlns="http://www.w3.org/2000/svg">
<rect width="36" height="36" rx="18" fill="#DCD5C8"/>
<path d="M10.4059 17.1806C10.4059 17.1806 17.2245 14.3908 19.5893 13.4085C20.4957 13.0156 23.57 11.7582 23.57 11.7582C23.57 11.7582 24.9888 11.2082 24.8706 12.544C24.8311 13.0941 24.5158 15.0194 24.2005 17.1019C23.7276 20.0489 23.2152 23.2708 23.2152 23.2708C23.2152 23.2708 23.1364 24.1745 22.4664 24.3317C21.7963 24.4889 20.6928 23.7816 20.4957 23.6244C20.3381 23.5065 17.5398 21.7384 16.5151 20.874C16.2392 20.6383 15.9238 20.1667 16.5545 19.6166C17.9733 18.32 19.6681 16.709 20.6928 15.6874C21.1657 15.2159 21.6387 14.1157 19.6681 15.4516C16.8698 17.3769 14.1108 19.1844 14.1108 19.1844C14.1108 19.1844 13.4803 19.5773 12.2979 19.2237C11.1155 18.87 9.73603 18.3986 9.73603 18.3986C9.73603 18.3986 8.7902 17.8091 10.4061 17.1806H10.4059Z" fill="#161616"/>
</svg>
